
<svg version="1.1" xmlns="http://www.w3.org/2000/svg" xmlns:xlink="http://www.w3.org/1999/xlink" x="0px" y="0px" viewBox="0 0 1000 1000" enable-background="new 0 0 1000 1000" xml:space="preserve" height="24" width="24">
<g><path fill="#ee534f"  d="M894.7,10H105.3C52.7,10,10,52.7,10,105.3v789.4c0,52.6,42.7,95.3,95.3,95.3h411.8V574.9H377.4V413.1h139.7V293.8c0-138.5,84.5-213.9,208-213.9c59.2,0,110,4.4,124.8,6.4V231l-85.6,0c-67.2,0-80.2,31.9-80.2,78.8v103.3h160.2l-20.9,161.8H684.1V990h210.6c52.6,0,95.3-42.7,95.3-95.3V105.3C990,52.7,947.3,10,894.7,10z"/></g>
</svg>